# xmcd
#
# Track frame offsets:
# 150
# 15646
# 28388
# 39987
# 52838
# 68687
# 81050
# 94714
# 105471
# 118000
# 140709
# 154803
# 169592
# 178601
# 190460
# 203186
# 217020
# 232374
#
# Disc length: 3255 seconds
#
#
# Revision: 0
# Processed by: cddbd v1.5PL3 Copyright (c) Steve Scherf et al.
# Submitted via: FreeRIP 2.51 
#
DISCID=fc0cb512
DTITLE=The Platters - The Platters
DYEAR=1900
DGENRE=Blues
TTITLE0=The Great Pretender
TTITLE1=Only You (And You Alone)
TTITLE2=Smoke Gets In Your Eyes
TTITLE3=Twilight Time
TTITLE4=My Prayer
TTITLE5=(You've Got) The Magic Touch
TTITLE6=I'm Sorry
TTITLE7=Red Sails In The Sunset
TTITLE8=Crying in The Chapel
TTITLE9=Unchained Melody
TTITLE10=Harbour Lights
TTITLE11=I Love You Because
TTITLE12=Sweet Sweet Lovin
TTITLE13=Heaven On Earth
TTITLE14=I Love You A 1000 Times
TTITLE15=Alone In The Night
TTITLE16=Sweet Inspiration
TTITLE17=I Love You Yes I Do
EXTD=
EXTT0=
EXTT1=
EXTT2=
EXTT3=
EXTT4=
EXTT5=
EXTT6=
EXTT7=
EXTT8=
EXTT9=
EXTT10=
EXTT11=
EXTT12=
EXTT13=
EXTT14=
EXTT15=
EXTT16=
EXTT17=
PLAYORDER=
